<svg xmlns="http://www.w3.org/2000/svg" xmlns:xlink="http://www.w3.org/1999/xlink" version="1.1" x="0px" y="0px" viewBox="0 0 100 100" enable-background="new 0 0 100 100" xml:space="preserve"><path d="M50.5,26.5c-0.7,0.1-1.9,0.3-2.2,0.4c-0.3,0.1-0.8,0.6-0.9,0.9c-0.2,0.4-0.3,1.4-0.3,2.4c0.1,2.9,0.1,2.9,0,3.9  c-0.1,0.5-0.2,1.4-0.2,1.9c0,0.5-0.2,1.7-0.4,2.5c-0.4,2.1-0.5,2.8-0.4,4c0.1,1.4,0.3,2.2,0.8,2.7c0.3,0.3,1.1,0.4,2.2,0.2  c0.8-0.1,1.7-0.1,3.3,0.2c0.7,0.1,1.3,0.2,1.3,0.2c0,0,0.1,0.2,0.2,0.5c0.1,0.3,0.3,0.8,0.4,1.2c0.4,1.1,1.7,4,1.8,4  c0,0,0.1-0.4,0.2-0.9c0.1-0.5,0.3-1.1,0.5-1.5c0.3-0.8,0.9-2.1,1-2.2c0,0,0.4,0.1,0.8,0.2c1,0.3,2.6,0.6,3.6,0.7  c1.1,0.1,3.2,0,4.1-0.2c1.5-0.3,2.1-0.6,2.5-1.4c0.2-0.4,0.2-0.4,0.3-2.2c0-0.7,0.2-2,0.4-3.1c0.6-4.2,0.8-5.7,0.8-8.6  c0-2,0-2.5-0.1-2.9c-0.2-0.6-0.6-1.4-1-1.8c-0.4-0.4-0.7-0.5-1.4-0.4c-0.3,0-1.3,0.1-2.2,0.1c-2.1,0-4.3-0.2-7-0.7  c-0.5-0.1-1.5-0.2-2.4-0.3s-1.8-0.1-2.2-0.2C53.2,26.5,51.3,26.5,50.5,26.5z M54.2,27.5c0.5,0.1,1.4,0.1,2.1,0.2  c1.3,0.1,1.9,0.1,3,0.4c0.4,0.1,1.4,0.2,2.2,0.3c2.9,0.3,4.4,0.4,6,0.2c0.5,0,0.9-0.1,1,0c0.2,0,0.7,0.9,0.9,1.4  c0.1,0.2,0.2,0.8,0.2,1.6c0.1,2.3-0.1,5.4-0.7,9.6c-0.2,1.1-0.3,2.6-0.4,3.4c-0.1,0.9-0.2,1.5-0.2,1.7c-0.2,0.5-0.8,0.7-2.2,1  c-0.8,0.2-3.2,0.2-4.3,0c-1.1-0.2-2.4-0.5-3.4-0.8c-0.5-0.2-0.8-0.3-0.9-0.2c-0.1,0.1-0.9,1.7-1.2,2.4l-0.4,0.8l-0.4-0.9  c-0.5-1.1-0.7-1.9-0.9-2.6c-0.1-0.3-0.2-0.6-0.2-0.6c0,0-0.7-0.1-1.5-0.3c-1.6-0.3-2.7-0.3-4.5-0.2c-0.3,0-0.7,0-0.8,0  c-0.3-0.1-0.5-0.5-0.6-1.3c-0.2-1.2-0.1-2.2,0.4-4.7c0.2-0.8,0.3-1.9,0.4-2.5c0-0.6,0.2-1.5,0.2-1.9c0.1-0.7,0.1-1,0.1-2.3  c-0.1-1.9-0.1-3,0-3.4c0.2-0.6,0.6-0.8,1.9-1C50.7,27.3,53.1,27.3,54.2,27.5z M62.2,31c-1.4,0.4-1.8,0.5-3.5,0.5  c-0.8,0-2-0.1-2.7-0.1c-0.7-0.1-1.3-0.1-1.4-0.1c-0.2,0-0.2,0-0.2,1.1c0,1.3,0,1.5-0.8,3.8c-0.3,0.8-0.6,1.7-0.6,2  C53,39,53.1,39,52.7,38.8c-0.4-0.1-1.2-0.1-1.5,0c-0.3,0.1-1,0.9-1.2,1.4c-0.4,0.9-0.2,1.6,0.6,2.4c0.3,0.3,0.5,0.4,0.8,0.5  c0.7,0.2,1.4,0,1.9-0.5c0.4-0.3,0.6-0.9,0.6-1.8c0.1-1.2,0.3-2.1,0.8-3.5c0.2-0.7,0.6-1.7,0.8-2.2c0.2-0.5,0.4-1,0.4-1  c0,0,0.5,0.1,1.2,0.2c1.9,0.4,3.2,0.5,4.5,0.3c0.3,0,0.6-0.1,0.6,0c0.1,0.1-0.2,1.7-0.6,3.4c-0.2,1-0.4,1.8-0.4,1.9  c0,0.1-0.1,0.1-0.2,0c-0.1,0-0.8-0.1-1.5-0.1c-1.2,0-1.3,0-1.6,0.2c-0.5,0.3-0.6,0.5-0.6,1.1c0,0.5,0,0.6,0.2,0.9  c0.3,0.4,0.7,0.7,1.4,0.9c0.4,0.1,0.7,0.2,1.4,0.1c0.9,0,1.3-0.2,1.8-0.6c0.5-0.4,0.7-0.9,0.7-1.8c0-0.4,0.1-1.2,0.2-1.9  c0.5-3.4,0.6-5.3,0.2-7.4c0-0.2-0.1-0.5-0.1-0.5C63,30.8,62.7,30.9,62.2,31z M34.2,43.8c-0.1,0-0.3,0.2-0.4,0.3  c-0.2,0.3-0.2,0.6,0.1,1.4c0.1,0.3,0.2,0.7,0.3,0.9c0.1,0.3,0.1,0.3-0.1,0.2c-0.1,0-0.8-0.5-1.6-1.1c-0.8-0.5-1.6-1.1-1.8-1.2  c-0.4-0.2-0.9-0.1-1.1,0.1c-0.2,0.2-0.3,0.7-0.2,1.1c0,0.1,0.6,1.1,1.2,2.2c0.9,1.5,1.1,2,1.1,2c0,0.1-0.4,0.3-0.9,0.5  c-3.4,1.7-6.1,4.5-8,8.3c-0.4,0.7-0.8,1.5-0.9,1.7c-0.4,0.5-1.1,1.1-2,1.5c-1.1,0.5-1.6,0.6-2.8,0.6c-1.2,0-1.9-0.2-3-0.7  c-1.6-0.8-2.5-1.9-3.2-3.9c-0.2-0.5-0.3-0.9-0.4-1c-0.4-0.5-1.1,0.3-1.4,1.6c-0.1,0.4-0.1,0.7,0,1.4c0.3,2.8,1.1,5.8,2.5,8.4  c3.7,7.3,9.1,12.7,15.3,15.4c1.2,0.5,3,1.1,4,1.4l0.6,0.1l0,0.7c0,0.4-0.1,1.4-0.1,2.2c-0.1,0.8-0.1,1.6-0.1,1.6c0,0.1,1.5,0,1.7,0  c0.1,0,0.2-0.1,0.2-0.2c0-0.1,0.1-2.3,0.2-3.1l0.1-0.7l0.3,0c0.2,0,0.8,0.1,1.4,0.2l1.1,0.1v0.5c0,0.2-0.1,1-0.2,1.7  C36.1,89,36,89.7,36,89.8V90h1c0.5,0,1,0,1-0.1s0.1-0.6,0.2-1.3c0.1-0.7,0.2-1.5,0.2-1.8v-0.5l0.5,0c0.6,0.1,1.9-0.1,3.1-0.3  c2.4-0.5,4.9-1.6,7.1-3.3c2.4-1.8,3.8-3.5,5-6.6c1.6-3.8,2.1-7.8,1.5-11.7c0-0.3,0-0.3,1.3-1.5c2.1-1.9,3-2.8,3.1-3.1  c0.2-0.5,0.1-0.9-0.4-1.1c-0.4-0.1-1.9-0.4-4.5-0.7l-1.9-0.2l-0.3-0.5c-0.9-1.3-1.9-2.6-2.6-3.3c-1.7-1.7-3.4-2.9-5.6-3.9l-0.9-0.4  l-1.3-1.5c-2.9-3.4-3.2-3.6-3.7-3.1c-0.2,0.2-0.3,0.6-0.4,1.4l-0.1,0.4l-1.5-1.5c-1.2-1.2-1.6-1.5-1.8-1.6  C34.6,43.7,34.5,43.7,34.2,43.8z M47.1,56.9c0.5,0.2,1,1.1,1.1,1.9c0.2,0.9-0.1,2.2-0.5,2.5c-0.4,0.3-1.1,0-1.5-0.7  c-0.3-0.6-0.4-1.1-0.4-2.1c0-0.7,0-0.9,0.2-1.2c0.1-0.2,0.2-0.4,0.3-0.5C46.5,56.8,46.9,56.8,47.1,56.9z M65.8,55.9  c-0.1,0.1-0.4,0.3-0.5,0.5l-0.2,0.3l0,3.6c0,2.4,0,3.7,0.1,3.8c0.1,0.4,0.4,0.7,0.8,0.9c0.3,0.1,0.5,0.1,2.5,0.1h2.2l1.1,1.3  l1.1,1.3l0-1.3l0-1.3l1.1,0c1,0,1.1,0,1.4-0.2c0.2-0.1,0.4-0.3,0.5-0.5c0.2-0.3,0.2-0.4,0.2-4c0-3.4,0-3.6-0.1-3.9  c-0.2-0.3-0.4-0.6-0.7-0.7c-0.1-0.1-1.7-0.1-4.7-0.1C66.3,55.7,66.1,55.7,65.8,55.9z M75,56.7l0.2,0.1l0,3.5c0,3.4,0,3.5-0.1,3.7  l-0.2,0.2h-1.4h-1.4l0,0.6l0,0.6l-0.5-0.6l-0.5-0.6h-2.4h-2.5L66.1,64C66,63.8,66,63.5,66,60.3v-3.4l0.2-0.2l0.2-0.2h4.2  C74.7,56.5,74.9,56.5,75,56.7z M70.8,57.8C69.8,57.9,69.1,58,69,58c0,0-0.1,0.8-0.1,1.8l0,1.7h-0.4c-0.7,0-1.1,0.3-1.1,0.8  c0,0.8,1.3,1.1,1.9,0.5c0.2-0.2,0.2-0.2,0.2-1.9l0-1.7l1.3-0.2c0.7-0.1,1.3-0.2,1.5-0.2l0.2,0v1.1v1.1h-0.4c-1,0-1.4,0.7-0.8,1.3  c0.4,0.4,1.2,0.4,1.6,0l0.2-0.2v-2.3v-2.3l-0.3,0C72.6,57.6,71.7,57.7,70.8,57.8z M79.7,67.3c-0.3,0.1-0.3,0.1-0.7,0.4l-0.3,0.2  l-0.2-0.2c-0.4-0.4-0.7-0.3-2,0.9c-0.6,0.6-0.8,0.7-1.2,0.8c-1.1,0.3-2.3,1.1-3.2,2L71.6,72h-1.2c-1,0-1.2,0-1.4,0.1  c-0.3,0.2-0.5,0.4-0.4,0.8c0,0.3,0.2,0.5,1,1.4l0.5,0.6L70,75.7c-0.3,1.5-0.2,3.1,0.3,4.6c0.3,1,0.7,1.6,1.3,2.3  c1.4,1.5,3.2,2.4,4.9,2.4c0.6,0,0.7,0,0.6,0.1c-0.1,0.3-0.3,1.8-0.2,1.8c0.1,0.1,0.7,0.2,0.8,0.1c0,0,0.1-0.5,0.2-1l0.2-1l0.6,0  c0.3,0,0.6,0,0.6,0c0,0-0.2,1.1-0.3,1.8c0,0.2,0,0.2,0.4,0.2c0.2,0,0.4,0.1,0.4,0.1c0,0,0.1-0.5,0.3-1.1l0.2-1.2l0.6-0.2  c2.8-0.7,5.2-2.6,7.2-5.4c0.9-1.2,1.6-3,1.7-4.1c0.1-0.8-0.3-1.4-0.7-1.4c-0.4,0-0.5,0.1-0.8,0.7c-0.4,0.9-1,1.3-1.9,1.3  c-0.6,0-1-0.1-1.4-0.4c-0.3-0.2-0.5-0.5-0.7-1.1c-0.5-1.4-1.4-2.8-2.5-3.6l-0.4-0.3l0.5-0.6c0.5-0.7,0.6-0.9,0.5-1.3  c-0.1-0.5-0.6-0.7-1.2-0.5c-0.5,0.2-0.5,0.2-0.5,0c0-0.2-0.3-0.5-0.6-0.5C80,67.3,79.9,67.3,79.7,67.3z M79.6,68.6  c-0.2,0.3-0.2,0.5,0,0.7c0.2,0.2,0.3,0.2,1.1-0.2c0.4-0.2,0.7-0.3,0.7-0.3s-0.3,0.4-0.6,0.7c-0.3,0.4-0.5,0.7-0.5,0.8  c0,0.2,0.2,0.4,0.7,0.8c1.2,0.8,2.1,2,2.6,3.6c0.2,0.6,0.3,0.7,0.7,1.1c0.4,0.4,0.6,0.5,0.9,0.7c1.3,0.5,2.8,0.1,3.5-0.9l0.2-0.3  l-0.1,0.3c-0.1,0.4-0.4,1.5-0.7,2.1c-0.6,1.1-1.6,2.4-2.7,3.5c-1.3,1.2-2.7,2.1-4.2,2.6c-1.1,0.4-1.8,0.5-3.7,0.5  c-1.9,0-2.2-0.1-3.2-0.6c-1-0.5-2.1-1.5-2.6-2.3c-0.6-1-1-2.5-1-4c0-0.8,0.2-1.9,0.3-2.4c0-0.1-0.2-0.4-0.7-1l-0.8-0.9l1.2,0l1.2,0  l0.6-0.6c0.9-1,1.9-1.6,3.1-2c0.5-0.2,0.6-0.2,1.3-0.9l0.8-0.7l0,0.5l0,0.5l0.8-0.6c0.4-0.3,0.8-0.6,0.8-0.7  C79.7,68.2,79.7,68.3,79.6,68.6z M73.9,72.2c-0.4,0.3-0.6,0.8-0.6,1.3c0,0.4,0,0.5,0.1,0.7c0.3,0.5,0.8,0.5,1.3,0.1  c0.4-0.4,0.5-0.7,0.5-1.4c0-0.6,0-0.7-0.2-0.8C74.6,71.8,74.2,71.8,73.9,72.2z M74.6,72.7c0.2,0.2,0,1-0.3,1.2  c-0.4,0.2-0.7-0.2-0.4-0.8C74,72.7,74.3,72.5,74.6,72.7z"></path></svg>