<?xml version="1.0" encoding="UTF-8" standalone="no"?>
<svg width="153px" height="121px" viewBox="0 0 153 121" version="1.1" xmlns="http://www.w3.org/2000/svg" xmlns:xlink="http://www.w3.org/1999/xlink">
    <!-- Generator: Sketch 39.1 (31720) - http://www.bohemiancoding.com/sketch -->
    <title>logo</title>
    <desc>Created with Sketch.</desc>
    <defs></defs>
    <g id="Page-1" stroke="none" stroke-width="1" fill="none" fill-rule="evenodd">
        <g id="nightingale_space" transform="translate(-786.000000, -75.000000)">
            <g id="logo" transform="translate(786.000000, 75.000000)">
                <path d="M78.3888889,0.9453125 C77.0666667,1.134375 74.8,1.5125 74.2333333,1.7015625 C73.6666667,1.890625 72.7222222,2.8359375 72.5333333,3.403125 C72.1555556,4.159375 71.9666667,6.05 71.9666667,7.940625 C72.1555556,13.4234375 72.1555556,13.4234375 71.9666667,15.3140625 C71.7777778,16.259375 71.5888889,17.9609375 71.5888889,18.90625 C71.5888889,19.8515625 71.2111111,22.1203125 70.8333333,23.6328125 C70.0777778,27.603125 69.8888889,28.9265625 70.0777778,31.1953125 C70.2666667,33.8421875 70.6444444,35.3546875 71.5888889,36.3 C72.1555556,36.8671875 73.6666667,37.05625 75.7444444,36.678125 C77.2555556,36.4890625 78.9555556,36.4890625 81.9777778,37.05625 C83.3,37.2453125 84.4333333,37.434375 84.4333333,37.434375 C84.4333333,37.434375 84.6222222,37.8125 84.8111111,38.3796875 C85,38.946875 85.3777778,39.8921875 85.5666667,40.6484375 C86.3222222,42.728125 88.7777778,48.2109375 88.9666667,48.2109375 C88.9666667,48.2109375 89.1555556,47.4546875 89.3444444,46.509375 C89.5333333,45.5640625 89.9111111,44.4296875 90.2888889,43.6734375 C90.8555556,42.1609375 91.9888889,39.703125 92.1777778,39.5140625 C92.1777778,39.5140625 92.9333333,39.703125 93.6888889,39.8921875 C95.5777778,40.459375 98.6,41.0265625 100.488889,41.215625 C102.566667,41.4046875 106.533333,41.215625 108.233333,40.8375 C111.066667,40.2703125 112.2,39.703125 112.955556,38.190625 C113.333333,37.434375 113.333333,37.434375 113.522222,34.03125 C113.522222,32.7078125 113.9,30.25 114.277778,28.1703125 C115.411111,20.2296875 115.788889,17.39375 115.788889,11.9109375 C115.788889,8.1296875 115.788889,7.184375 115.6,6.428125 C115.222222,5.29375 114.466667,3.78125 113.711111,3.025 C112.955556,2.26875 112.388889,2.0796875 111.066667,2.26875 C110.5,2.26875 108.611111,2.4578125 106.911111,2.4578125 C102.944444,2.4578125 98.7888889,2.0796875 93.6888889,1.134375 C92.7444444,0.9453125 90.8555556,0.75625 89.1555556,0.5671875 C87.4555556,0.378125 85.7555556,0.378125 85,0.1890625 C83.4888889,0.9453125 79.9,0.9453125 78.3888889,0.9453125 L78.3888889,0.9453125 Z M85.3777778,2.8359375 C86.3222222,3.025 88.0222222,3.025 89.3444444,3.2140625 C91.8,3.403125 92.9333333,3.403125 95.0111111,3.9703125 C95.7666667,4.159375 97.6555556,4.3484375 99.1666667,4.5375 C104.644444,5.1046875 107.477778,5.29375 110.5,4.915625 C111.444444,4.915625 112.2,4.7265625 112.388889,4.915625 C112.766667,4.915625 113.711111,6.6171875 114.088889,7.5625 C114.277778,7.940625 114.466667,9.075 114.466667,10.5875 C114.655556,14.9359375 114.277778,20.796875 113.144444,28.7375 C112.766667,30.8171875 112.577778,33.653125 112.388889,35.165625 C112.2,36.8671875 112.011111,38.0015625 112.011111,38.3796875 C111.633333,39.325 110.5,39.703125 107.855556,40.2703125 C106.344444,40.6484375 101.811111,40.6484375 99.7333333,40.2703125 C97.6555556,39.8921875 95.2,39.325 93.3111111,38.7578125 C92.3666667,38.3796875 91.8,38.190625 91.6111111,38.3796875 C91.4222222,38.56875 89.9111111,41.59375 89.3444444,42.9171875 L88.5888889,44.4296875 L87.8333333,42.728125 C86.8888889,40.6484375 86.5111111,39.1359375 86.1333333,37.8125 C85.9444444,37.2453125 85.7555556,36.678125 85.7555556,36.678125 C85.7555556,36.678125 84.4333333,36.4890625 82.9222222,36.1109375 C79.9,35.54375 77.8222222,35.54375 74.4222222,35.7328125 L72.9111111,35.7328125 C72.3444444,35.54375 71.9666667,34.7875 71.7777778,33.275 C71.4,31.00625 71.5888889,29.115625 72.5333333,24.3890625 C72.9111111,22.8765625 73.1,20.796875 73.2888889,19.6625 C73.2888889,18.528125 73.6666667,16.8265625 73.6666667,16.0703125 C73.8555556,14.746875 73.8555556,14.1796875 73.8555556,11.721875 C73.6666667,8.1296875 73.6666667,6.05 73.8555556,5.29375 C74.2333333,4.159375 74.9888889,3.78125 77.4444444,3.403125 C78.7666667,2.4578125 83.3,2.4578125 85.3777778,2.8359375 L85.3777778,2.8359375 Z M100.488889,9.453125 C97.8444444,10.209375 97.0888889,10.3984375 93.8777778,10.3984375 C92.3666667,10.3984375 90.1,10.209375 88.7777778,10.209375 C87.4555556,10.0203125 86.3222222,10.0203125 86.1333333,10.0203125 C85.7555556,10.0203125 85.7555556,10.0203125 85.7555556,12.1 C85.7555556,14.5578125 85.7555556,14.9359375 84.2444444,19.284375 C83.6777778,20.796875 83.1111111,22.4984375 83.1111111,23.065625 C83.1111111,24.578125 83.3,24.578125 82.5444444,24.2 C81.7888889,24.0109375 80.2777778,24.0109375 79.7111111,24.2 C79.1444444,24.3890625 77.8222222,25.9015625 77.4444444,26.846875 C76.6888889,28.5484375 77.0666667,29.871875 78.5777778,31.384375 C79.1444444,31.9515625 79.5222222,32.140625 80.0888889,32.3296875 C81.4111111,32.7078125 82.7333333,32.3296875 83.6777778,31.384375 C84.4333333,30.8171875 84.8111111,29.6828125 84.8111111,27.98125 C85,25.7125 85.3777778,24.0109375 86.3222222,21.3640625 C86.7,20.040625 87.4555556,18.15 87.8333333,17.2046875 C88.2111111,16.259375 88.5888889,15.3140625 88.5888889,15.3140625 C88.5888889,15.3140625 89.5333333,15.503125 90.8555556,15.6921875 C94.4444444,16.4484375 96.9,16.6375 99.3555556,16.259375 C99.9222222,16.259375 100.488889,16.0703125 100.488889,16.259375 C100.677778,16.4484375 100.111111,19.4734375 99.3555556,22.6875 C98.9777778,24.578125 98.6,26.090625 98.6,26.2796875 C98.6,26.46875 98.4111111,26.46875 98.2222222,26.2796875 C98.0333333,26.2796875 96.7111111,26.090625 95.3888889,26.090625 C93.1222222,26.090625 92.9333333,26.090625 92.3666667,26.46875 C91.4222222,27.0359375 91.2333333,27.4140625 91.2333333,28.5484375 C91.2333333,29.49375 91.2333333,29.6828125 91.6111111,30.25 C92.1777778,31.00625 92.9333333,31.5734375 94.2555556,31.9515625 C95.0111111,32.140625 95.5777778,32.3296875 96.9,32.140625 C98.6,32.140625 99.3555556,31.7625 100.3,31.00625 C101.244444,30.25 101.622222,29.3046875 101.622222,27.603125 C101.622222,26.846875 101.811111,25.334375 102,24.0109375 C102.944444,17.5828125 103.133333,13.990625 102.377778,10.0203125 C102.377778,9.6421875 102.188889,9.075 102.188889,9.075 C102,9.075 101.433333,9.2640625 100.488889,9.453125 L100.488889,9.453125 Z M47.6,33.653125 C47.4111111,33.653125 47.0333333,34.03125 46.8444444,34.2203125 C46.4666667,34.7875 46.4666667,35.3546875 47.0333333,36.8671875 C47.2222222,37.434375 47.4111111,38.190625 47.6,38.56875 C47.7888889,39.1359375 47.7888889,39.1359375 47.4111111,38.946875 C47.2222222,38.946875 45.9,38.0015625 44.3888889,36.8671875 C42.8777778,35.921875 41.3666667,34.7875 40.9888889,34.5984375 C40.2333333,34.2203125 39.2888889,34.409375 38.9111111,34.7875 C38.5333333,35.165625 38.3444444,36.1109375 38.5333333,36.8671875 C38.5333333,37.05625 39.6666667,38.946875 40.8,41.0265625 C42.5,43.8625 42.8777778,44.8078125 42.8777778,44.8078125 C42.8777778,44.996875 42.1222222,45.375 41.1777778,45.753125 C34.7555556,48.9671875 29.6555556,54.2609375 26.0666667,61.4453125 C25.3111111,62.76875 24.5555556,64.28125 24.3666667,64.659375 C23.6111111,65.6046875 22.2888889,66.7390625 20.5888889,67.4953125 C18.5111111,68.440625 17.5666667,68.6296875 15.3,68.6296875 C13.0333333,68.6296875 11.7111111,68.2515625 9.63333333,67.30625 C6.61111111,65.79375 4.91111111,63.7140625 3.58888889,59.9328125 C3.21111111,58.9875 3.02222222,58.23125 2.83333333,58.0421875 C2.07777778,57.096875 0.755555556,58.609375 0.188888889,61.0671875 C9.32587341e-15,61.8234375 9.32587341e-15,62.390625 0.188888889,63.7140625 C0.755555556,69.0078125 2.26666667,74.6796875 4.91111111,79.5953125 C11.9,93.396875 22.1,103.60625 33.8111111,108.710938 C36.0777778,109.65625 39.4777778,110.790625 41.3666667,111.357813 L42.5,111.546875 L42.5,112.870313 C42.5,113.626563 42.3111111,115.517188 42.3111111,117.029688 C42.1222222,118.542188 42.1222222,120.054688 42.1222222,120.054688 C42.1222222,120.24375 44.9555556,120.054688 45.3333333,120.054688 C45.5222222,120.054688 45.7111111,119.865625 45.7111111,119.676563 C45.7111111,119.4875 45.9,115.328125 46.0888889,113.815625 L46.2777778,112.492188 L46.8444444,112.492188 C47.2222222,112.492188 48.3555556,112.68125 49.4888889,112.870313 L51.5666667,113.059375 L51.5666667,114.004688 C51.5666667,114.382813 51.3777778,115.895313 51.1888889,117.21875 C51.1888889,119.109375 51,120.432813 51,120.621875 L51,121 L52.8888889,121 C53.8333333,121 54.7777778,121 54.7777778,120.810938 C54.7777778,120.621875 54.9666667,119.676563 55.1555556,118.353125 C55.3444444,117.029688 55.5333333,115.517188 55.5333333,114.95 L55.5333333,114.004688 L56.4777778,114.004688 C57.6111111,114.19375 60.0666667,113.815625 62.3333333,113.4375 C66.8666667,112.492188 71.5888889,110.4125 75.7444444,107.198438 C80.2777778,103.795313 82.9222222,100.58125 85.1888889,94.7203125 C88.2111111,87.5359375 89.1555556,79.9734375 88.0222222,72.6 C88.0222222,72.0328125 88.0222222,72.0328125 90.4777778,69.7640625 C94.4444444,66.171875 96.1444444,64.4703125 96.3333333,63.903125 C96.7111111,62.9578125 96.5222222,62.2015625 95.5777778,61.8234375 C94.8222222,61.634375 91.9888889,61.0671875 87.0777778,60.5 L83.4888889,60.121875 L82.9222222,59.1765625 C81.2222222,56.71875 79.3333333,54.2609375 78.0111111,52.9375 C74.8,49.7234375 71.5888889,47.4546875 67.4333333,45.5640625 L65.7333333,44.8078125 L63.2777778,41.971875 C57.8,35.54375 57.2333333,35.165625 56.2888889,36.1109375 C55.9111111,36.4890625 55.7222222,37.2453125 55.5333333,38.7578125 L55.3444444,39.5140625 L52.5111111,36.678125 C50.2444444,34.409375 49.4888889,33.8421875 49.1111111,33.653125 C48.3555556,33.4640625 48.1666667,33.4640625 47.6,33.653125 L47.6,33.653125 Z M71.9666667,58.4203125 C72.9111111,58.7984375 73.8555556,60.5 74.0444444,62.0125 C74.4222222,63.7140625 73.8555556,66.171875 73.1,66.7390625 C72.3444444,67.30625 71.0222222,66.7390625 70.2666667,65.415625 C69.7,64.28125 69.5111111,63.3359375 69.5111111,61.4453125 C69.5111111,60.121875 69.5111111,59.74375 69.8888889,59.1765625 C70.0777778,58.7984375 70.2666667,58.4203125 70.4555556,58.23125 C70.8333333,58.23125 71.5888889,58.23125 71.9666667,58.4203125 L71.9666667,58.4203125 Z" id="Big-bird" fill="#00FFD0"></path>
                <path d="M107.288889,56.5296875 C107.1,56.71875 106.533333,57.096875 106.344444,57.475 L105.966667,58.0421875 L105.966667,64.8484375 C105.966667,69.3859375 105.966667,71.84375 106.155556,72.0328125 C106.344444,72.7890625 106.911111,73.35625 107.666667,73.734375 C108.233333,73.9234375 108.611111,73.9234375 112.388889,73.9234375 L116.544444,73.9234375 L118.622222,76.38125 L120.7,78.8390625 L120.7,76.38125 L120.7,73.9234375 L122.777778,73.9234375 C124.666667,73.9234375 124.855556,73.9234375 125.422222,73.5453125 C125.8,73.35625 126.177778,72.978125 126.366667,72.6 C126.744444,72.0328125 126.744444,71.84375 126.744444,65.0375 C126.744444,58.609375 126.744444,58.23125 126.555556,57.6640625 C126.177778,57.096875 125.8,56.5296875 125.233333,56.340625 C125.044444,56.1515625 122.022222,56.1515625 116.355556,56.1515625 C108.233333,56.1515625 107.855556,56.1515625 107.288889,56.5296875 Z M124.666667,58.0421875 L125.044444,58.23125 L125.044444,64.8484375 C125.044444,71.2765625 125.044444,71.465625 124.855556,71.84375 L124.477778,72.221875 L121.833333,72.221875 L119.188889,72.221875 L119.188889,73.35625 L119.188889,74.490625 L118.244444,73.35625 L117.3,72.221875 L112.766667,72.221875 L108.044444,72.221875 L107.855556,71.84375 C107.666667,71.465625 107.666667,70.8984375 107.666667,64.8484375 L107.666667,58.4203125 L108.044444,58.0421875 L108.422222,57.6640625 L116.355556,57.6640625 C124.1,57.6640625 124.477778,57.6640625 124.666667,58.0421875 Z M133.544444,78.0828125 C132.977778,78.271875 132.977778,78.271875 132.222222,78.8390625 L131.655556,79.2171875 L131.277778,78.8390625 C130.522222,78.0828125 129.955556,78.271875 127.5,80.540625 C126.366667,81.675 125.988889,81.8640625 125.233333,82.053125 C123.155556,82.6203125 120.888889,84.1328125 119.188889,85.834375 L118.244444,86.96875 L115.977778,86.96875 C114.088889,86.96875 113.711111,86.96875 113.333333,87.1578125 C112.766667,87.5359375 112.388889,87.9140625 112.577778,88.6703125 C112.577778,89.2375 112.955556,89.615625 114.466667,91.3171875 L115.411111,92.4515625 L115.222222,93.9640625 C114.655556,96.8 114.844444,99.825 115.788889,102.660937 C116.355556,104.551562 117.111111,105.685937 118.244444,107.009375 C120.888889,109.845312 124.288889,111.546875 127.5,111.546875 C128.633333,111.546875 128.822222,111.546875 128.633333,111.735937 C128.444444,112.303125 128.066667,115.139062 128.255556,115.139062 C128.444444,115.328125 129.577778,115.517187 129.766667,115.328125 C129.766667,115.328125 129.955556,114.382812 130.144444,113.4375 L130.522222,111.546875 L131.655556,111.546875 L132.788889,111.546875 C132.788889,111.546875 132.411111,113.626562 132.222222,114.95 C132.222222,115.328125 132.222222,115.328125 132.977778,115.328125 C133.355556,115.328125 133.733333,115.517187 133.733333,115.517187 C133.733333,115.517187 133.922222,114.571875 134.3,113.4375 L134.677778,111.16875 L135.811111,110.790625 C141.1,109.467187 145.633333,105.875 149.411111,100.58125 C151.111111,98.3125 152.433333,94.909375 152.622222,92.8296875 C152.811111,91.3171875 152.055556,90.1828125 151.3,90.1828125 C150.544444,90.1828125 150.355556,90.371875 149.788889,91.50625 C149.033333,93.2078125 147.9,93.9640625 146.2,93.9640625 C145.066667,93.9640625 144.311111,93.775 143.555556,93.2078125 C142.988889,92.8296875 142.611111,92.2625 142.233333,91.128125 C141.288889,88.48125 139.588889,85.834375 137.511111,84.321875 L136.755556,83.7546875 L137.7,82.6203125 C138.644444,81.296875 138.833333,80.91875 138.644444,80.1625 C138.455556,79.2171875 137.511111,78.8390625 136.377778,79.2171875 C135.433333,79.5953125 135.433333,79.5953125 135.433333,79.2171875 C135.433333,78.8390625 134.866667,78.271875 134.3,78.271875 C134.111111,78.0828125 133.922222,78.0828125 133.544444,78.0828125 Z M133.355556,80.540625 C132.977778,81.1078125 132.977778,81.4859375 133.355556,81.8640625 C133.733333,82.2421875 133.922222,82.2421875 135.433333,81.4859375 C136.188889,81.1078125 136.755556,80.91875 136.755556,80.91875 C136.755556,80.91875 136.188889,81.675 135.622222,82.2421875 C135.055556,82.9984375 134.677778,83.565625 134.677778,83.7546875 C134.677778,84.1328125 135.055556,84.5109375 136,85.2671875 C138.266667,86.7796875 139.966667,89.0484375 140.911111,92.0734375 C141.288889,93.2078125 141.477778,93.396875 142.233333,94.153125 C142.988889,94.909375 143.366667,95.0984375 143.933333,95.4765625 C146.388889,96.421875 149.222222,95.665625 150.544444,93.775 L150.922222,93.2078125 L150.733333,93.775 C150.544444,94.53125 149.977778,96.6109375 149.411111,97.7453125 C148.277778,99.825 146.388889,102.282812 144.311111,104.3625 C141.855556,106.63125 139.211111,108.332812 136.377778,109.278125 C134.3,110.034375 132.977778,110.223437 129.388889,110.223437 C125.8,110.223437 125.233333,110.034375 123.344444,109.089062 C121.455556,108.14375 119.377778,106.253125 118.433333,104.740625 C117.3,102.85 116.544444,100.014062 116.544444,97.178125 C116.544444,95.665625 116.922222,93.5859375 117.111111,92.640625 C117.111111,92.4515625 116.733333,91.884375 115.788889,90.75 L114.277778,89.0484375 L116.544444,89.0484375 L118.811111,89.0484375 L119.944444,87.9140625 C121.644444,86.0234375 123.533333,84.8890625 125.8,84.1328125 C126.744444,83.7546875 126.933333,83.7546875 128.255556,82.43125 L129.766667,81.1078125 L129.766667,82.053125 L129.766667,82.9984375 L131.277778,81.8640625 C132.033333,81.296875 132.788889,80.7296875 132.788889,80.540625 C133.544444,79.784375 133.544444,79.9734375 133.355556,80.540625 Z M122.588889,87.346875 C121.833333,87.9140625 121.455556,88.859375 121.455556,89.8046875 C121.455556,90.5609375 121.455556,90.75 121.644444,91.128125 C122.211111,92.0734375 123.155556,92.0734375 124.1,91.3171875 C124.855556,90.5609375 125.044444,89.99375 125.044444,88.6703125 C125.044444,87.5359375 125.044444,87.346875 124.666667,87.1578125 C123.911111,86.590625 123.155556,86.590625 122.588889,87.346875 Z M123.911111,88.2921875 C124.288889,88.6703125 123.911111,90.1828125 123.344444,90.5609375 C122.588889,90.9390625 122.022222,90.1828125 122.588889,89.0484375 C122.777778,88.2921875 123.344444,87.9140625 123.911111,88.2921875 Z M116.733333,60.121875 C114.844444,60.3109375 113.522222,60.5 113.333333,60.5 C113.333333,60.5 113.144444,62.0125 113.144444,63.903125 L113.144444,67.1171875 L112.388889,67.1171875 C111.066667,67.1171875 110.311111,67.684375 110.311111,68.6296875 C110.311111,70.1421875 112.766667,70.709375 113.9,69.575 C114.277778,69.196875 114.277778,69.196875 114.277778,65.9828125 L114.277778,62.76875 L116.733333,62.390625 C118.055556,62.2015625 119.188889,62.0125 119.566667,62.0125 L119.944444,62.0125 L119.944444,64.0921875 L119.944444,66.171875 L119.188889,66.171875 C117.3,66.171875 116.544444,67.4953125 117.677778,68.6296875 C118.433333,69.3859375 119.944444,69.3859375 120.7,68.6296875 L121.077778,68.2515625 L121.077778,63.903125 L121.077778,59.5546875 L120.511111,59.5546875 C120.133333,59.74375 118.433333,59.9328125 116.733333,60.121875 Z" id="Little-bird" fill="#F2F95C"></path>
            </g>
        </g>
    </g>
</svg>